<svg width="18" height="18" viewBox="0 0 18 18" fill="none" xmlns="http://www.w3.org/2000/svg">
<path d="M14.8334 17.3346H3.16675C1.78604 17.3346 0.666748 16.2154 0.666748 14.8346V1.5013C0.666748 1.04107 1.03985 0.667969 1.50008 0.667969H13.1667C13.627 0.667969 14.0001 1.04107 14.0001 1.5013V11.5013H17.3334V14.8346C17.3334 16.2154 16.2142 17.3346 14.8334 17.3346ZM14.0001 13.168V14.8346C14.0001 15.2949 14.3732 15.668 14.8334 15.668C15.2937 15.668 15.6667 15.2949 15.6667 14.8346V13.168H14.0001ZM12.3334 15.668V2.33464H2.33341V14.8346C2.33341 15.2949 2.70651 15.668 3.16675 15.668H12.3334ZM4.00008 4.83464H10.6667V6.5013H4.00008V4.83464ZM4.00008 8.16797H10.6667V9.83463H4.00008V8.16797ZM4.00008 11.5013H8.16675V13.168H4.00008V11.5013Z" fill="red"/>
</svg>
